<?xml version="1.0" encoding="utf-8"?>
<!-- Generator: Adobe Illustrator 21.0.0, SVG Export Plug-In . SVG Version: 6.00 Build 0)  -->
<svg version="1.1" id="Layer_1" xmlns="http://www.w3.org/2000/svg" xmlns:xlink="http://www.w3.org/1999/xlink" x="0px" y="0px"
	 viewBox="0 0 16 16" style="enable-background:new 0 0 16 16;" xml:space="preserve">
<style type="text/css">
	.st0{fill:none;stroke:#000000;stroke-width:0.9249;stroke-miterlimit:10;}
</style>
<title>alert</title>
<desc>Created with Sketch.</desc>
<path class="st0" d="M8.8,2C8.6,1.7,8.3,1.5,8,1.5S7.4,1.7,7.2,2L0.9,13.1c-0.2,0.3-0.2,0.6,0,0.9c0.2,0.3,0.5,0.5,0.8,0.5h12.7
	c0.3,0,0.6-0.2,0.8-0.5c0.2-0.3,0.2-0.6,0-0.9L8.8,2z"/>
<polygon points="8.8,13.1 7.2,13.1 7.2,11.2 8.8,11.2 8.8,13.1 "/>
<polygon points="8.8,10.6 7.2,10.6 6.9,4.8 9.1,4.8 8.8,10.6 "/>
</svg>
