<svg id="Layer_1" data-name="Layer 1" xmlns="http://www.w3.org/2000/svg" width="512" height="512" viewBox="0 0 512 512">
  <title>uauthArtboard 8 copy 2</title>
  <g id="_Group_" data-name="&lt;Group&gt;">
    <path d="M506.21,88.69V423.27a23,23,0,0,1-23,22.94H28.73A22.93,22.93,0,0,1,5.79,423.27V88.69A22.93,22.93,0,0,1,28.73,65.75h454.5A23,23,0,0,1,506.21,88.69Zm-31,140.39V192.39a11.54,11.54,0,0,0-11.54-11.54H424.18a11.54,11.54,0,0,0-11.54,11.54v36.68a11.52,11.52,0,0,0,11.54,11.54H463.7A11.52,11.52,0,0,0,475.24,229.07Zm-.67,175V365.35a10.49,10.49,0,0,0-10.5-10.47H398a10.49,10.49,0,0,0-10.5,10.47v38.76a10.5,10.5,0,0,0,10.5,10.5h66.11A10.5,10.5,0,0,0,474.57,404.11Zm0-86.45V277.83a10,10,0,0,0-10-10h-63a10,10,0,0,0-10,10v39.83a10,10,0,0,0,10,10h63A10,10,0,0,0,474.57,317.66Zm-87.11-90.09V193.93a13.07,13.07,0,0,0-13-13.08H337.9a13,13,0,0,0-13,13.08v33.64a13,13,0,0,0,13,13h36.52A13.06,13.06,0,0,0,387.46,227.57Zm-20.8,176.17v-38a10.88,10.88,0,0,0-10.9-10.87H139.36a10.88,10.88,0,0,0-10.9,10.87v38a10.9,10.9,0,0,0,10.9,10.87h216.4A10.9,10.9,0,0,0,366.66,403.74Zm0-87.15V278.9a11,11,0,0,0-11-11H315.06a11,11,0,0,0-11,11v37.69a11,11,0,0,0,11,11h40.56A11,11,0,0,0,366.66,316.59Zm-67-88.92V193.79a13,13,0,0,0-12.94-12.94H250a12.94,12.94,0,0,0-12.91,12.94v33.88A12.92,12.92,0,0,0,250,240.61h36.75A12.93,12.93,0,0,0,299.67,227.67Zm-20.8,89.62V278.2a10.34,10.34,0,0,0-10.33-10.33h-42a10.32,10.32,0,0,0-10.33,10.33v39.09a10.34,10.34,0,0,0,10.33,10.33h42A10.36,10.36,0,0,0,278.87,317.29Zm-67-89.32V193.49a12.65,12.65,0,0,0-12.64-12.64H161.9a12.65,12.65,0,0,0-12.64,12.64V228a12.63,12.63,0,0,0,12.64,12.64h37.35A12.63,12.63,0,0,0,211.89,228Zm-20.83,86.85V280.67a12.78,12.78,0,0,0-12.77-12.81h-37a12.79,12.79,0,0,0-12.81,12.81v34.14a12.81,12.81,0,0,0,12.81,12.81h37A12.8,12.8,0,0,0,191.06,314.82Zm-66.78-86.14V192.82a12,12,0,0,0-11.94-12h-59a12,12,0,0,0-12,12v35.85a12,12,0,0,0,12,11.94h59A12,12,0,0,0,124.28,228.67Zm-21,175.6V365.21a10.32,10.32,0,0,0-10.33-10.33H51a10.32,10.32,0,0,0-10.33,10.33v39.06A10.32,10.32,0,0,0,51,414.61H92.94A10.32,10.32,0,0,0,103.27,404.27Zm0-87.88V279.07a11.2,11.2,0,0,0-11.2-11.2H51.88a11.2,11.2,0,0,0-11.2,11.2v37.32a11.21,11.21,0,0,0,11.2,11.24h40.2A11.21,11.21,0,0,0,103.27,316.39Z" style="fill: none;stroke: #231f20;stroke-linecap: round;stroke-miterlimit: 10;stroke-width: 11.58786706271535px"/>
    <path d="M475.24,192.39v36.68a11.52,11.52,0,0,1-11.54,11.54H424.18a11.52,11.52,0,0,1-11.54-11.54V192.39a11.54,11.54,0,0,1,11.54-11.54H463.7A11.54,11.54,0,0,1,475.24,192.39Z" style="fill: none;stroke: #231f20;stroke-linecap: round;stroke-miterlimit: 10;stroke-width: 11.58786706271535px"/>
    <path d="M474.57,365.35v38.76a10.5,10.5,0,0,1-10.5,10.5H398a10.5,10.5,0,0,1-10.5-10.5V365.35A10.49,10.49,0,0,1,398,354.88h66.11A10.49,10.49,0,0,1,474.57,365.35Z" style="fill: none;stroke: #231f20;stroke-linecap: round;stroke-miterlimit: 10;stroke-width: 11.58786706271535px"/>
    <path d="M474.57,277.83v39.83a10,10,0,0,1-10,10h-63a10,10,0,0,1-10-10V277.83a10,10,0,0,1,10-10h63A10,10,0,0,1,474.57,277.83Z" style="fill: none;stroke: #231f20;stroke-linecap: round;stroke-miterlimit: 10;stroke-width: 11.58786706271535px"/>
    <path d="M387.46,193.93v33.64a13.06,13.06,0,0,1-13,13H337.9a13,13,0,0,1-13-13V193.93a13,13,0,0,1,13-13.08h36.52A13.07,13.07,0,0,1,387.46,193.93Z" style="fill: none;stroke: #231f20;stroke-linecap: round;stroke-miterlimit: 10;stroke-width: 11.58786706271535px"/>
    <path d="M366.66,365.75v38a10.9,10.9,0,0,1-10.9,10.87H139.36a10.9,10.9,0,0,1-10.9-10.87v-38a10.88,10.88,0,0,1,10.9-10.87h216.4A10.88,10.88,0,0,1,366.66,365.75Z" style="fill: none;stroke: #231f20;stroke-linecap: round;stroke-miterlimit: 10;stroke-width: 11.58786706271535px"/>
    <rect x="304.02" y="267.87" width="62.64" height="59.76" rx="11.04" ry="11.04" style="fill: none;stroke: #231f20;stroke-linecap: round;stroke-miterlimit: 10;stroke-width: 11.58786706271535px"/>
    <path d="M299.67,193.79v33.88a12.93,12.93,0,0,1-12.94,12.94H250a12.92,12.92,0,0,1-12.91-12.94V193.79A12.94,12.94,0,0,1,250,180.85h36.75A13,13,0,0,1,299.67,193.79Z" style="fill: none;stroke: #231f20;stroke-linecap: round;stroke-miterlimit: 10;stroke-width: 11.58786706271535px"/>
    <path d="M278.87,278.2v39.09a10.36,10.36,0,0,1-10.33,10.33h-42a10.34,10.34,0,0,1-10.33-10.33V278.2a10.32,10.32,0,0,1,10.33-10.33h42A10.34,10.34,0,0,1,278.87,278.2Z" style="fill: none;stroke: #231f20;stroke-linecap: round;stroke-miterlimit: 10;stroke-width: 11.58786706271535px"/>
    <path d="M211.89,193.49V228a12.63,12.63,0,0,1-12.64,12.64H161.9A12.63,12.63,0,0,1,149.26,228V193.49a12.65,12.65,0,0,1,12.64-12.64h37.35A12.65,12.65,0,0,1,211.89,193.49Z" style="fill: none;stroke: #231f20;stroke-linecap: round;stroke-miterlimit: 10;stroke-width: 11.58786706271535px"/>
    <path d="M191.06,280.67v34.14a12.8,12.8,0,0,1-12.77,12.81h-37a12.81,12.81,0,0,1-12.81-12.81V280.67a12.79,12.79,0,0,1,12.81-12.81h37A12.78,12.78,0,0,1,191.06,280.67Z" style="fill: none;stroke: #231f20;stroke-linecap: round;stroke-miterlimit: 10;stroke-width: 11.58786706271535px"/>
    <path d="M124.28,192.82v35.85a12,12,0,0,1-11.94,11.94h-59a12,12,0,0,1-12-11.94V192.82a12,12,0,0,1,12-12h59A12,12,0,0,1,124.28,192.82Z" style="fill: none;stroke: #231f20;stroke-linecap: round;stroke-miterlimit: 10;stroke-width: 11.58786706271535px"/>
    <rect x="40.67" y="354.88" width="62.6" height="59.73" rx="10.33" ry="10.33" style="fill: none;stroke: #231f20;stroke-linecap: round;stroke-miterlimit: 10;stroke-width: 11.58786706271535px"/>
    <path d="M103.27,279.07v37.32a11.21,11.21,0,0,1-11.2,11.24H51.88a11.21,11.21,0,0,1-11.2-11.24V279.07a11.2,11.2,0,0,1,11.2-11.2h40.2A11.2,11.2,0,0,1,103.27,279.07Z" style="fill: none;stroke: #231f20;stroke-linecap: round;stroke-miterlimit: 10;stroke-width: 11.58786706271535px"/>
  </g>
  <rect x="41.36" y="96.86" width="62.61" height="59.75" rx="12.63" ry="12.63" style="fill: none;stroke: #231f20;stroke-linecap: round;stroke-miterlimit: 10;stroke-width: 11.58786706271535px"/>
  <rect x="134" y="96.86" width="62.61" height="59.75" rx="12.63" ry="12.63" style="fill: none;stroke: #231f20;stroke-linecap: round;stroke-miterlimit: 10;stroke-width: 11.58786706271535px"/>
  <rect x="226.65" y="96.86" width="62.61" height="59.75" rx="12.63" ry="12.63" style="fill: none;stroke: #231f20;stroke-linecap: round;stroke-miterlimit: 10;stroke-width: 11.58786706271535px"/>
  <rect x="319.3" y="96.86" width="62.61" height="59.75" rx="12.63" ry="12.63" style="fill: none;stroke: #231f20;stroke-linecap: round;stroke-miterlimit: 10;stroke-width: 11.58786706271535px"/>
  <rect x="411.94" y="96.86" width="62.61" height="59.75" rx="12.63" ry="12.63" style="fill: none;stroke: #231f20;stroke-linecap: round;stroke-miterlimit: 10;stroke-width: 11.58786706271535px"/>
</svg>
